<?xml version="1.0" encoding="utf-8"?>
<!-- Generated by IcoMoon.io -->
<svg version="1.1" xmlns="http://www.w3.org/2000/svg" xmlns:xlink="http://www.w3.org/1999/xlink" width="752" height="128" viewBox="0 0 752 128">
<svg id="_icon-credit_card_green" width="32" height="32" viewBox="0 0 32 32" x="0" y="0">
<path fill="#78a75a" d="M27.433 9.127v13.747q0 0.808-0.551 1.359t-1.358 0.551h-19.048q-0.807 0-1.358-0.551t-0.551-1.359v-13.747q0-0.808 0.551-1.359t1.358-0.551h19.048q0.807 0 1.358 0.551t0.551 1.359zM5.417 12.15h21.167v-3.017q0-0.4-0.333-0.733t-0.733-0.333h-19.033q-0.4 0-0.733 0.333t-0.333 0.733v3.017zM5.417 14.55v8.317q0 0.4 0.333 0.733t0.733 0.333h19.033q0.4 0 0.733-0.333t0.333-0.733v-8.317h-21.167zM5.417 23.933v0z"></path>
</svg>
<svg id="_icon-credit_card_red" width="32" height="32" viewBox="0 0 32 32" x="48" y="0">
<path fill="#bb271a" d="M27.433 9.127v13.747q0 0.808-0.551 1.359t-1.358 0.551h-19.048q-0.807 0-1.358-0.551t-0.551-1.359v-13.747q0-0.808 0.551-1.359t1.358-0.551h19.048q0.807 0 1.358 0.551t0.551 1.359zM5.417 12.15h21.167v-3.017q0-0.4-0.333-0.733t-0.733-0.333h-19.033q-0.4 0-0.733 0.333t-0.333 0.733v3.017zM5.417 14.55v8.317q0 0.4 0.333 0.733t0.733 0.333h19.033q0.4 0 0.733-0.333t0.333-0.733v-8.317h-21.167zM5.417 23.933v0z"></path>
</svg>
<svg id="_icon-close_red" width="32" height="32" viewBox="0 0 32 32" x="96" y="0">
<path fill="#bb271a" d="M8.583 24.033l-0.6-0.617 7.4-7.417-7.4-7.417 0.6-0.617 7.417 7.417 7.417-7.417 0.6 0.617-7.4 7.417 7.4 7.417-0.6 0.617-7.417-7.417-7.417 7.417z"></path>
</svg>
<svg id="_icon-close_gray" width="32" height="32" viewBox="0 0 32 32" x="144" y="0">
<path d="M9.75 22.7l-0.433-0.45 6.233-6.25-6.233-6.25 0.433-0.45 6.25 6.25 6.25-6.25 0.433 0.45-6.233 6.25 6.233 6.25-0.433 0.45-6.25-6.25-6.25 6.25z"></path>
</svg>
<svg id="_icon-receipt1_gray" width="32" height="32" viewBox="0 0 32 32" x="192" y="0">
<path d="M5.733 27.2v-22.4l1.6 1.067 1.733-1.067 1.733 1.067 1.733-1.067 1.733 1.067 1.733-1.067 1.733 1.067 1.733-1.067 1.733 1.067 1.733-1.067 1.733 1.067 1.6-1.067v22.4l-1.6-1.067-1.733 1.067-1.733-1.067-1.733 1.067-1.733-1.067-1.733 1.067-1.733-1.067-1.733 1.067-1.733-1.067-1.733 1.067-1.733-1.067-1.6 1.067zM8.867 20.733h14.267v-0.933h-14.267v0.933zM8.867 16.467h14.267v-0.933h-14.267v0.933zM8.867 12.2h14.267v-0.933h-14.267v0.933zM6.667 25.467h18.667v-18.933h-18.667v18.933zM6.667 6.533v0z"></path>
</svg>
<svg id="_icon-receipt1_red" width="32" height="32" viewBox="0 0 32 32" x="240" y="0">
<path fill="#bb271a" d="M5.733 27.2v-22.4l1.6 1.067 1.733-1.067 1.733 1.067 1.733-1.067 1.733 1.067 1.733-1.067 1.733 1.067 1.733-1.067 1.733 1.067 1.733-1.067 1.733 1.067 1.6-1.067v22.4l-1.6-1.067-1.733 1.067-1.733-1.067-1.733 1.067-1.733-1.067-1.733 1.067-1.733-1.067-1.733 1.067-1.733-1.067-1.733 1.067-1.733-1.067-1.6 1.067zM8.867 20.733h14.267v-0.933h-14.267v0.933zM8.867 16.467h14.267v-0.933h-14.267v0.933zM8.867 12.2h14.267v-0.933h-14.267v0.933zM6.667 25.467h18.667v-18.933h-18.667v18.933zM6.667 6.533v0z"></path>
</svg>
<svg id="_icon-receipt1_green" width="32" height="32" viewBox="0 0 32 32" x="288" y="0">
<path fill="#78a75a" d="M5.733 27.2v-22.4l1.6 1.067 1.733-1.067 1.733 1.067 1.733-1.067 1.733 1.067 1.733-1.067 1.733 1.067 1.733-1.067 1.733 1.067 1.733-1.067 1.733 1.067 1.6-1.067v22.4l-1.6-1.067-1.733 1.067-1.733-1.067-1.733 1.067-1.733-1.067-1.733 1.067-1.733-1.067-1.733 1.067-1.733-1.067-1.733 1.067-1.733-1.067-1.6 1.067zM8.867 20.733h14.267v-0.933h-14.267v0.933zM8.867 16.467h14.267v-0.933h-14.267v0.933zM8.867 12.2h14.267v-0.933h-14.267v0.933zM6.667 25.467h18.667v-18.933h-18.667v18.933zM6.667 6.533v0z"></path>
</svg>
<svg id="_icon-newspaper_green" width="32" height="32" viewBox="0 0 32 32" x="336" y="0">
<path fill="#78a75a" d="M5.533 27.133q-0.825 0-1.412-0.588t-0.588-1.412v-19.033l1.367 1.367 2.2-2.233 2.233 2.233 2.233-2.233 2.2 2.233 2.233-2.233 2.233 2.233 2.2-2.233 2.233 2.233 2.233-2.233 2.2 2.233 1.367-1.367v19.033q0 0.825-0.587 1.412t-1.413 0.588h-20.933zM5.533 26.2h10v-9.733h-11.067v8.667q0 0.467 0.3 0.767t0.767 0.3zM16.467 26.2h10q0.467 0 0.767-0.3t0.3-0.767v-3.333h-11.067v4.4zM16.467 20.867h11.067v-4.4h-11.067v4.4zM4.467 15.533h23.067v-6.067h-23.067v6.067z"></path>
</svg>
<svg id="_icon-newspaper_red" width="32" height="32" viewBox="0 0 32 32" x="384" y="0">
<path fill="#bb271a" d="M5.533 27.133q-0.825 0-1.412-0.588t-0.588-1.412v-19.033l1.367 1.367 2.2-2.233 2.233 2.233 2.233-2.233 2.2 2.233 2.233-2.233 2.233 2.233 2.2-2.233 2.233 2.233 2.233-2.233 2.2 2.233 1.367-1.367v19.033q0 0.825-0.587 1.412t-1.413 0.588h-20.933zM5.533 26.2h10v-9.733h-11.067v8.667q0 0.467 0.3 0.767t0.767 0.3zM16.467 26.2h10q0.467 0 0.767-0.3t0.3-0.767v-3.333h-11.067v4.4zM16.467 20.867h11.067v-4.4h-11.067v4.4zM4.467 15.533h23.067v-6.067h-23.067v6.067z"></path>
</svg>
<svg id="_icon-newspaper_gray" width="32" height="32" viewBox="0 0 32 32" x="432" y="0">
<path d="M5.533 27.133q-0.825 0-1.412-0.588t-0.588-1.412v-19.033l1.367 1.367 2.2-2.233 2.233 2.233 2.233-2.233 2.2 2.233 2.233-2.233 2.233 2.233 2.2-2.233 2.233 2.233 2.233-2.233 2.2 2.233 1.367-1.367v19.033q0 0.825-0.587 1.412t-1.413 0.588h-20.933zM5.533 26.2h10v-9.733h-11.067v8.667q0 0.467 0.3 0.767t0.767 0.3zM16.467 26.2h10q0.467 0 0.767-0.3t0.3-0.767v-3.333h-11.067v4.4zM16.467 20.867h11.067v-4.4h-11.067v4.4zM4.467 15.533h23.067v-6.067h-23.067v6.067z"></path>
</svg>
<svg id="_icon-order_green" width="32" height="32" viewBox="0 0 32 32" x="480" y="0">
<path fill="#78a75a" d="M23.2 26.267l3.533-3.467-0.667-0.667-2.867 2.833-1.267-1.3-0.667 0.667 1.933 1.933zM9.333 11.533h13.333v-0.933h-13.333v0.933zM24 29.133q-2.067 0-3.5-1.433t-1.433-3.5 1.433-3.5 3.5-1.433 3.5 1.433 1.433 3.5-1.433 3.5-3.5 1.433zM5.733 27.2v-19.467q0-0.833 0.583-1.417t1.417-0.583h16.533q0.833 0 1.417 0.583t0.583 1.417v7.633q-0.233-0.067-0.45-0.117t-0.483-0.083v-7.433q0-0.4-0.333-0.733t-0.733-0.333h-16.533q-0.4 0-0.733 0.333t-0.333 0.733v17.667h8.567q0.067 0.4 0.15 0.8t0.25 0.767l-1.367-0.833-1.733 1.067-1.733-1.067-1.733 1.067-1.733-1.067-1.6 1.067zM9.333 21.4h6.133q0.067-0.267 0.15-0.483t0.183-0.45h-6.467v0.933zM9.333 16.467h9.833q0.467-0.3 0.933-0.533t1-0.4h-11.767v0.933zM6.667 25.4v0z"></path>
</svg>
<svg id="_icon-order_gray" width="32" height="32" viewBox="0 0 32 32" x="528" y="0">
<path d="M23.2 26.267l3.533-3.467-0.667-0.667-2.867 2.833-1.267-1.3-0.667 0.667 1.933 1.933zM9.333 11.533h13.333v-0.933h-13.333v0.933zM24 29.133q-2.067 0-3.5-1.433t-1.433-3.5 1.433-3.5 3.5-1.433 3.5 1.433 1.433 3.5-1.433 3.5-3.5 1.433zM5.733 27.2v-19.467q0-0.833 0.583-1.417t1.417-0.583h16.533q0.833 0 1.417 0.583t0.583 1.417v7.633q-0.233-0.067-0.45-0.117t-0.483-0.083v-7.433q0-0.4-0.333-0.733t-0.733-0.333h-16.533q-0.4 0-0.733 0.333t-0.333 0.733v17.667h8.567q0.067 0.4 0.15 0.8t0.25 0.767l-1.367-0.833-1.733 1.067-1.733-1.067-1.733 1.067-1.733-1.067-1.6 1.067zM9.333 21.4h6.133q0.067-0.267 0.15-0.483t0.183-0.45h-6.467v0.933zM9.333 16.467h9.833q0.467-0.3 0.933-0.533t1-0.4h-11.767v0.933zM6.667 25.4v0z"></path>
</svg>
<svg id="_icon-payments_gray" width="32" height="32" viewBox="0 0 32 32" x="576" y="0">
<path d="M17.8 16.333q-0.967 0-1.617-0.65t-0.65-1.617 0.65-1.617 1.617-0.65 1.617 0.65 0.65 1.617-0.65 1.617-1.617 0.65zM9.867 20.667q-0.825 0-1.412-0.588t-0.588-1.412v-9.2q0-0.825 0.588-1.413t1.412-0.587h15.867q0.825 0 1.413 0.587t0.587 1.413v9.2q0 0.825-0.587 1.412t-1.413 0.588h-15.867zM10.8 19.733h14q0-0.833 0.588-1.417t1.412-0.583v-7.333q-0.833 0-1.417-0.588t-0.583-1.412h-14q0 0.833-0.587 1.417t-1.413 0.583v7.333q0.833 0 1.417 0.587t0.583 1.413zM23.8 24.267h-17.533q-0.825 0-1.412-0.588t-0.588-1.412v-10.867h0.933v10.867q0 0.4 0.333 0.733t0.733 0.333h17.533v0.933zM9.867 19.733h-1.067v-11.333h1.067q-0.433 0-0.75 0.317t-0.317 0.75v9.2q0 0.433 0.317 0.75t0.75 0.317z"></path>
</svg>
<svg id="_icon-payments_green" width="32" height="32" viewBox="0 0 32 32" x="624" y="0">
<path fill="#78a75a" d="M17.8 16.333q-0.967 0-1.617-0.65t-0.65-1.617 0.65-1.617 1.617-0.65 1.617 0.65 0.65 1.617-0.65 1.617-1.617 0.65zM9.867 20.667q-0.825 0-1.412-0.588t-0.588-1.412v-9.2q0-0.825 0.588-1.413t1.412-0.587h15.867q0.825 0 1.413 0.587t0.587 1.413v9.2q0 0.825-0.587 1.412t-1.413 0.588h-15.867zM10.8 19.733h14q0-0.833 0.588-1.417t1.412-0.583v-7.333q-0.833 0-1.417-0.588t-0.583-1.412h-14q0 0.833-0.587 1.417t-1.413 0.583v7.333q0.833 0 1.417 0.587t0.583 1.413zM23.8 24.267h-17.533q-0.825 0-1.412-0.588t-0.588-1.412v-10.867h0.933v10.867q0 0.4 0.333 0.733t0.733 0.333h17.533v0.933zM9.867 19.733h-1.067v-11.333h1.067q-0.433 0-0.75 0.317t-0.317 0.75v9.2q0 0.433 0.317 0.75t0.75 0.317z"></path>
</svg>
<svg id="_icon-bookmark_red" width="32" height="32" viewBox="0 0 32 32" x="672" y="0">
<path fill="#bb271a" d="M8.4 25.4v-17.667q0-0.867 0.567-1.433t1.433-0.567h6.933v0.933h-6.933q-0.4 0-0.733 0.333t-0.333 0.733v16.2l6.667-2.867 6.667 2.867v-9.267h0.933v10.733l-7.6-3.267-7.6 3.267zM9.333 6.667v0zM22.667 12v-2.667h-2.667v-0.933h2.667v-2.667h0.933v2.667h2.667v0.933h-2.667v2.667h-0.933z"></path>
</svg>
<svg id="_icon-bookmark_gray" width="32" height="32" viewBox="0 0 32 32" x="720" y="0">
<path d="M8.4 25.4v-17.667q0-0.867 0.567-1.433t1.433-0.567h6.933v0.933h-6.933q-0.4 0-0.733 0.333t-0.333 0.733v16.2l6.667-2.867 6.667 2.867v-9.267h0.933v10.733l-7.6-3.267-7.6 3.267zM9.333 6.667v0zM22.667 12v-2.667h-2.667v-0.933h2.667v-2.667h0.933v2.667h2.667v0.933h-2.667v2.667h-0.933z"></path>
</svg>
<svg id="_icon-bookmark_green" width="32" height="32" viewBox="0 0 32 32" x="0" y="48">
<path fill="#78a75a" d="M8.4 25.4v-17.667q0-0.867 0.567-1.433t1.433-0.567h6.933v0.933h-6.933q-0.4 0-0.733 0.333t-0.333 0.733v16.2l6.667-2.867 6.667 2.867v-9.267h0.933v10.733l-7.6-3.267-7.6 3.267zM9.333 6.667v0zM22.667 12v-2.667h-2.667v-0.933h2.667v-2.667h0.933v2.667h2.667v0.933h-2.667v2.667h-0.933z"></path>
</svg>
<svg id="_icon-article_green" width="32" height="32" viewBox="0 0 32 32" x="48" y="48">
<path fill="#78a75a" d="M10.2 21.8h7.6v-0.933h-7.6v0.933zM10.2 16.467h11.6v-0.933h-11.6v0.933zM10.2 11.133h11.6v-0.933h-11.6v0.933zM7.733 26.267q-0.867 0-1.433-0.567t-0.567-1.433v-16.533q0-0.867 0.567-1.433t1.433-0.567h16.533q0.867 0 1.433 0.567t0.567 1.433v16.533q0 0.867-0.567 1.433t-1.433 0.567h-16.533zM7.733 25.333h16.533q0.4 0 0.733-0.333t0.333-0.733v-16.533q0-0.4-0.333-0.733t-0.733-0.333h-16.533q-0.4 0-0.733 0.333t-0.333 0.733v16.533q0 0.4 0.333 0.733t0.733 0.333zM6.667 6.667v0z"></path>
</svg>
<svg id="_icon-article_red" width="32" height="32" viewBox="0 0 32 32" x="96" y="48">
<path fill="#bb271a" d="M10.2 21.8h7.6v-0.933h-7.6v0.933zM10.2 16.467h11.6v-0.933h-11.6v0.933zM10.2 11.133h11.6v-0.933h-11.6v0.933zM7.733 26.267q-0.867 0-1.433-0.567t-0.567-1.433v-16.533q0-0.867 0.567-1.433t1.433-0.567h16.533q0.867 0 1.433 0.567t0.567 1.433v16.533q0 0.867-0.567 1.433t-1.433 0.567h-16.533zM7.733 25.333h16.533q0.4 0 0.733-0.333t0.333-0.733v-16.533q0-0.4-0.333-0.733t-0.733-0.333h-16.533q-0.4 0-0.733 0.333t-0.333 0.733v16.533q0 0.4 0.333 0.733t0.733 0.333zM6.667 6.667v0z"></path>
</svg>
<svg id="_icon-article_gray" width="32" height="32" viewBox="0 0 32 32" x="144" y="48">
<path d="M10.2 21.8h7.6v-0.933h-7.6v0.933zM10.2 16.467h11.6v-0.933h-11.6v0.933zM10.2 11.133h11.6v-0.933h-11.6v0.933zM7.733 26.267q-0.867 0-1.433-0.567t-0.567-1.433v-16.533q0-0.867 0.567-1.433t1.433-0.567h16.533q0.867 0 1.433 0.567t0.567 1.433v16.533q0 0.867-0.567 1.433t-1.433 0.567h-16.533zM7.733 25.333h16.533q0.4 0 0.733-0.333t0.333-0.733v-16.533q0-0.4-0.333-0.733t-0.733-0.333h-16.533q-0.4 0-0.733 0.333t-0.333 0.733v16.533q0 0.4 0.333 0.733t0.733 0.333zM6.667 6.667v0z"></path>
</svg>
<svg id="_icon-shopping_gray" width="32" height="32" viewBox="0 0 32 32" x="192" y="48">
<path d="M20.2 15.8h-0.667l-0.933-0.933h2.133l3.667-6.8q0.2-0.367 0.017-0.65t-0.55-0.283h-13l-0.933-0.933h14q0.9 0 1.317 0.733t-0.050 1.6l-3.4 6.333q-0.267 0.5-0.583 0.717t-1.017 0.217zM9.867 27.8q-0.767 0-1.283-0.517t-0.517-1.283 0.517-1.283 1.283-0.517 1.283 0.517 0.517 1.283-0.517 1.283-1.283 0.517zM27 28.333l-7.2-7.2h-9.933q-1.067 0-1.583-0.883t-0.017-1.783l2.067-3.667-2.867-6-3.867-3.867 0.667-0.667 23.4 23.4-0.667 0.667zM18.867 20.2l-4.4-4.4h-3.667l-1.667 3.067q-0.267 0.5-0.017 0.917t0.75 0.417h9zM20.733 14.867v0zM22.133 27.8q-0.733 0-1.267-0.517t-0.533-1.283 0.533-1.283 1.267-0.517 1.267 0.517 0.533 1.283-0.533 1.283-1.267 0.517z"></path>
</svg>
<svg id="_icon-shopping_red" width="32" height="32" viewBox="0 0 32 32" x="240" y="48">
<path fill="#bb271a" d="M20.2 15.8h-0.667l-0.933-0.933h2.133l3.667-6.8q0.2-0.367 0.017-0.65t-0.55-0.283h-13l-0.933-0.933h14q0.9 0 1.317 0.733t-0.050 1.6l-3.4 6.333q-0.267 0.5-0.583 0.717t-1.017 0.217zM9.867 27.8q-0.767 0-1.283-0.517t-0.517-1.283 0.517-1.283 1.283-0.517 1.283 0.517 0.517 1.283-0.517 1.283-1.283 0.517zM27 28.333l-7.2-7.2h-9.933q-1.067 0-1.583-0.883t-0.017-1.783l2.067-3.667-2.867-6-3.867-3.867 0.667-0.667 23.4 23.4-0.667 0.667zM18.867 20.2l-4.4-4.4h-3.667l-1.667 3.067q-0.267 0.5-0.017 0.917t0.75 0.417h9zM20.733 14.867v0zM22.133 27.8q-0.733 0-1.267-0.517t-0.533-1.283 0.533-1.283 1.267-0.517 1.267 0.517 0.533 1.283-0.533 1.283-1.267 0.517z"></path>
</svg>
<svg id="_icon-barcode_scanner" width="32" height="32" viewBox="0 0 32 32" x="288" y="48">
<path d="M2.2 27.133v-4.933h0.933v4h4v0.933h-4.933zM24.867 27.133v-0.933h4v-4h0.933v4.933h-4.933zM5.333 24v-16h2.667v16h-2.667zM9.333 24v-16h1.333v16h-1.333zM13.333 24v-16h2.667v16h-2.667zM17.333 24v-16h4v16h-4zM22.667 24v-16h1.333v16h-1.333zM25.333 24v-16h1.333v16h-1.333zM2.2 9.8v-4.933h4.933v0.933h-4v4h-0.933zM28.867 9.8v-4h-4v-0.933h4.933v4.933h-0.933z"></path>
</svg>
<svg id="_icon-qr_code_scanner" width="32" height="32" viewBox="0 0 32 32" x="336" y="48">
<path d="M4.4 9.4v-5h5v0.933h-4.067v4.067h-0.933zM4.4 27.6v-5h0.933v4.067h4.067v0.933h-5zM22.6 27.6v-0.933h4.067v-4.067h0.933v5h-5zM26.667 9.4v-4.067h-4.067v-0.933h5v5h-0.933zM22.367 22.367h1.5v1.5h-1.5v-1.5zM22.367 19.367h1.5v1.5h-1.5v-1.5zM20.867 20.867h1.5v1.5h-1.5v-1.5zM19.367 22.367h1.5v1.5h-1.5v-1.5zM17.867 20.867h1.5v1.5h-1.5v-1.5zM20.867 17.867h1.5v1.5h-1.5v-1.5zM19.367 19.367h1.5v1.5h-1.5v-1.5zM17.867 17.867h1.5v1.5h-1.5v-1.5zM23.867 8.133v6h-6v-6h6zM14.133 17.867v6h-6v-6h6zM14.133 8.133v6h-6v-6h6zM13.2 22.933v-4.133h-4.133v4.133h4.133zM13.2 13.2v-4.133h-4.133v4.133h4.133zM22.933 13.2v-4.133h-4.133v4.133h4.133z"></path>
</svg>
<svg id="_icon-shopping_cart2_red" width="32" height="32" viewBox="0 0 32 32" x="384" y="48">
<path fill="#bb271a" d="M9.867 27.8q-0.767 0-1.283-0.517t-0.517-1.283 0.517-1.283 1.283-0.517 1.283 0.517 0.517 1.283-0.517 1.283-1.283 0.517zM22.133 27.8q-0.767 0-1.283-0.517t-0.517-1.283 0.517-1.283 1.283-0.517 1.283 0.517 0.517 1.283-0.517 1.283-1.283 0.517zM7.733 7.133l3.667 7.733h8.7q0.3 0 0.533-0.15t0.4-0.417l3.433-6.233q0.2-0.367 0.033-0.65t-0.567-0.283h-16.2zM7.267 6.2h16.667q0.9 0 1.35 0.717t0.050 1.483l-3.533 6.467q-0.267 0.433-0.683 0.683t-0.917 0.25h-9.4l-1.667 3.067q-0.267 0.4-0.017 0.867t0.75 0.467h14.067v0.933h-14.067q-1.067 0-1.583-0.883t-0.017-1.783l2.067-3.667-4.933-10.333h-2.333v-0.933h2.933l1.267 2.667zM11.4 14.867v0z"></path>
</svg>
<svg id="_icon-shopping_cart2_green" width="32" height="32" viewBox="0 0 32 32" x="432" y="48">
<path fill="#78a75a" d="M9.867 27.8q-0.767 0-1.283-0.517t-0.517-1.283 0.517-1.283 1.283-0.517 1.283 0.517 0.517 1.283-0.517 1.283-1.283 0.517zM22.133 27.8q-0.767 0-1.283-0.517t-0.517-1.283 0.517-1.283 1.283-0.517 1.283 0.517 0.517 1.283-0.517 1.283-1.283 0.517zM7.733 7.133l3.667 7.733h8.7q0.3 0 0.533-0.15t0.4-0.417l3.433-6.233q0.2-0.367 0.033-0.65t-0.567-0.283h-16.2zM7.267 6.2h16.667q0.9 0 1.35 0.717t0.050 1.483l-3.533 6.467q-0.267 0.433-0.683 0.683t-0.917 0.25h-9.4l-1.667 3.067q-0.267 0.4-0.017 0.867t0.75 0.467h14.067v0.933h-14.067q-1.067 0-1.583-0.883t-0.017-1.783l2.067-3.667-4.933-10.333h-2.333v-0.933h2.933l1.267 2.667zM11.4 14.867v0z"></path>
</svg>
<svg id="_icon-shopping_cart2_gray" width="32" height="32" viewBox="0 0 32 32" x="480" y="48">
<path d="M9.867 27.8q-0.767 0-1.283-0.517t-0.517-1.283 0.517-1.283 1.283-0.517 1.283 0.517 0.517 1.283-0.517 1.283-1.283 0.517zM22.133 27.8q-0.767 0-1.283-0.517t-0.517-1.283 0.517-1.283 1.283-0.517 1.283 0.517 0.517 1.283-0.517 1.283-1.283 0.517zM7.733 7.133l3.667 7.733h8.7q0.3 0 0.533-0.15t0.4-0.417l3.433-6.233q0.2-0.367 0.033-0.65t-0.567-0.283h-16.2zM7.267 6.2h16.667q0.9 0 1.35 0.717t0.050 1.483l-3.533 6.467q-0.267 0.433-0.683 0.683t-0.917 0.25h-9.4l-1.667 3.067q-0.267 0.4-0.017 0.867t0.75 0.467h14.067v0.933h-14.067q-1.067 0-1.583-0.883t-0.017-1.783l2.067-3.667-4.933-10.333h-2.333v-0.933h2.933l1.267 2.667zM11.4 14.867v0z"></path>
</svg>
<svg id="_icon-credit_card_gray" width="32" height="32" viewBox="0 0 32 32" x="528" y="48">
<path d="M27.6 9.067v13.867q0 0.867-0.567 1.433t-1.433 0.567h-19.2q-0.867 0-1.433-0.567t-0.567-1.433v-13.867q0-0.867 0.567-1.433t1.433-0.567h19.2q0.867 0 1.433 0.567t0.567 1.433zM5.333 12.067h21.333v-3q0-0.4-0.333-0.733t-0.733-0.333h-19.2q-0.4 0-0.733 0.333t-0.333 0.733v3zM5.333 14.6v8.333q0 0.4 0.333 0.733t0.733 0.333h19.2q0.4 0 0.733-0.333t0.333-0.733v-8.333h-21.333zM5.333 24v0z"></path>
</svg>
<svg id="_icon-receipt_long_red" width="32" height="32" viewBox="0 0 32 32" x="576" y="48">
<path fill="#bb271a" d="M8 27.6q-0.967 0-1.617-0.65t-0.65-1.601v-2.282h4v-18l1.6 0.933 1.667-0.933 1.667 0.933 1.667-0.933 1.667 0.933 1.667-0.933 1.667 0.933 1.667-0.933 1.667 0.933 1.6-0.933v20.267q0 0.967-0.65 1.617t-1.617 0.65h-16zM24 26.667q0.567 0 0.95-0.383t0.383-0.95v-18.667h-14.667v16.4h12v2.267q0 0.567 0.383 0.95t0.95 0.383zM12.667 11.133v-0.933h6.867v0.933h-6.867zM12.667 15.133v-0.933h6.867v0.933h-6.867zM22.467 11.6q-0.367 0-0.65-0.283t-0.283-0.65 0.283-0.65 0.65-0.283 0.65 0.283 0.283 0.65-0.283 0.65-0.65 0.283zM22.467 15.6q-0.367 0-0.65-0.283t-0.283-0.65 0.283-0.65 0.65-0.283 0.65 0.283 0.283 0.65-0.283 0.65-0.65 0.283zM8 26.667h13.733v-2.667h-15.067v1.333q0 0.567 0.383 0.95t0.95 0.383zM6.667 26.667v0z"></path>
</svg>
<svg id="_icon-receipt_long_green" width="32" height="32" viewBox="0 0 32 32" x="624" y="48">
<path fill="#78a75a" d="M8 27.6q-0.967 0-1.617-0.65t-0.65-1.601v-2.282h4v-18l1.6 0.933 1.667-0.933 1.667 0.933 1.667-0.933 1.667 0.933 1.667-0.933 1.667 0.933 1.667-0.933 1.667 0.933 1.6-0.933v20.267q0 0.967-0.65 1.617t-1.617 0.65h-16zM24 26.667q0.567 0 0.95-0.383t0.383-0.95v-18.667h-14.667v16.4h12v2.267q0 0.567 0.383 0.95t0.95 0.383zM12.667 11.133v-0.933h6.867v0.933h-6.867zM12.667 15.133v-0.933h6.867v0.933h-6.867zM22.467 11.6q-0.367 0-0.65-0.283t-0.283-0.65 0.283-0.65 0.65-0.283 0.65 0.283 0.283 0.65-0.283 0.65-0.65 0.283zM22.467 15.6q-0.367 0-0.65-0.283t-0.283-0.65 0.283-0.65 0.65-0.283 0.65 0.283 0.283 0.65-0.283 0.65-0.65 0.283zM8 26.667h13.733v-2.667h-15.067v1.333q0 0.567 0.383 0.95t0.95 0.383zM6.667 26.667v0z"></path>
</svg>
<svg id="_icon-receipt_long_gray" width="32" height="32" viewBox="0 0 32 32" x="672" y="48">
<path d="M8 27.6q-0.967 0-1.617-0.65t-0.65-1.601v-2.282h4v-18l1.6 0.933 1.667-0.933 1.667 0.933 1.667-0.933 1.667 0.933 1.667-0.933 1.667 0.933 1.667-0.933 1.667 0.933 1.6-0.933v20.267q0 0.967-0.65 1.617t-1.617 0.65h-16zM24 26.667q0.567 0 0.95-0.383t0.383-0.95v-18.667h-14.667v16.4h12v2.267q0 0.567 0.383 0.95t0.95 0.383zM12.667 11.133v-0.933h6.867v0.933h-6.867zM12.667 15.133v-0.933h6.867v0.933h-6.867zM22.467 11.6q-0.367 0-0.65-0.283t-0.283-0.65 0.283-0.65 0.65-0.283 0.65 0.283 0.283 0.65-0.283 0.65-0.65 0.283zM22.467 15.6q-0.367 0-0.65-0.283t-0.283-0.65 0.283-0.65 0.65-0.283 0.65 0.283 0.283 0.65-0.283 0.65-0.65 0.283zM8 26.667h13.733v-2.667h-15.067v1.333q0 0.567 0.383 0.95t0.95 0.383zM6.667 26.667v0z"></path>
</svg>
<svg id="_icon-delete_gray" width="32" height="32" viewBox="0 0 32 32" x="720" y="48">
<path d="M10.4 26.267q-0.833 0-1.417-0.583t-0.583-1.417v-16.267h-1.333v-0.933h4.933v-0.933h8v0.933h4.933v0.933h-1.333v16.267q0 0.867-0.567 1.433t-1.433 0.567h-11.2zM22.667 8h-13.333v16.267q0 0.467 0.3 0.767t0.767 0.3h11.2q0.4 0 0.733-0.333t0.333-0.733v-16.267zM13.4 22.667h0.933v-12h-0.933v12zM17.667 22.667h0.933v-12h-0.933v12zM9.333 8v0z"></path>
</svg>
<svg id="_icon-delete_forever_red" width="32" height="32" viewBox="0 0 32 32" x="0" y="96">
<path fill="#bb271a" d="M12.533 20.8l3.467-3.467 3.467 3.467 0.667-0.667-3.467-3.467 3.467-3.467-0.667-0.667-3.467 3.467-3.467-3.467-0.667 0.667 3.467 3.467-3.467 3.467 0.667 0.667zM10.4 26.267q-0.867 0-1.433-0.567t-0.567-1.433v-16.267h-1.333v-0.933h4.933v-0.933h8v0.933h4.933v0.933h-1.333v16.267q0 0.867-0.567 1.433t-1.433 0.567h-11.2zM22.667 8h-13.333v16.267q0 0.4 0.333 0.733t0.733 0.333h11.2q0.4 0 0.733-0.333t0.333-0.733v-16.267zM9.333 8v0z"></path>
</svg>
<svg id="_icon-logout_gray" width="32" height="32" viewBox="0 0 32 32" x="48" y="96">
<path d="M7.733 26.267q-0.867 0-1.433-0.567t-0.567-1.433v-16.533q0-0.867 0.567-1.433t1.433-0.567h8.3v0.933h-8.3q-0.4 0-0.733 0.333t-0.333 0.733v16.533q0 0.4 0.333 0.733t0.733 0.333h8.3v0.933h-8.3zM22.133 20.133l-0.667-0.667 3-3h-12.133v-0.933h12.133l-3-3 0.667-0.667 4.133 4.133-4.133 4.133z"></path>
</svg>
<svg id="_icon-shopping_cart3_green" width="32" height="32" viewBox="0 0 32 32" x="96" y="96">
<path fill="#78a75a" d="M16 12.1l-0.633-0.633 3-3h-6.833v-0.933h6.833l-3-3 0.633-0.633 4.1 4.1-4.1 4.1zM9.867 27.8q-0.767 0-1.283-0.517t-0.517-1.283 0.517-1.283 1.283-0.517 1.283 0.517 0.517 1.283-0.517 1.283-1.283 0.517zM22.133 27.8q-0.767 0-1.283-0.517t-0.517-1.283 0.517-1.283 1.283-0.517 1.283 0.517 0.517 1.283-0.517 1.283-1.283 0.517zM3.067 4.467v-0.933h2.933l5.4 11.333h8.7q0.3 0 0.533-0.15t0.4-0.417l4.5-8.1h1.067l-4.8 8.667q-0.267 0.433-0.683 0.683t-0.917 0.25h-9.4l-1.667 3.067q-0.267 0.4-0.017 0.867t0.75 0.467h14.067v0.933h-14.067q-1.067 0-1.583-0.883t-0.017-1.783l2.067-3.667-4.933-10.333h-2.333z"></path>
</svg>
<svg id="_icon-check_green" width="32" height="32" viewBox="0 0 32 32" x="144" y="96">
<path fill="#78a75a" d="M12.733 22.8l-6.333-6.333 0.667-0.667 5.667 5.667 12.2-12.2 0.667 0.667-12.867 12.867z"></path>
</svg>
<svg id="_icon-check_gray" width="32" height="32" viewBox="0 0 32 32" x="192" y="96">
<path d="M12.733 22.8l-6.333-6.333 0.667-0.667 5.667 5.667 12.2-12.2 0.667 0.667-12.867 12.867z"></path>
</svg>
<svg id="_icon-arrow_back" width="32" height="32" viewBox="0 0 32 32" x="240" y="96">
<path d="M8.867 16.467l7.8 7.8-0.667 0.667-8.933-8.933 8.933-8.933 0.667 0.667-7.8 7.8h16.067v0.933h-16.067z"></path>
</svg>
<svg id="_icon-arrow_forward" width="32" height="32" viewBox="0 0 32 32" x="288" y="96">
<path d="M10.667 28.133l-1.133-1.133 11-11-11-11 1.133-1.133 12.133 12.133-12.133 12.133z"></path>
</svg>
<svg id="_icon-search" width="32" height="32" viewBox="0 0 32 32" x="336" y="96">
<path d="M25.933 26.533l-8.333-8.333q-1 0.867-2.3 1.333t-2.567 0.467q-3.074 0-5.204-2.128t-2.129-5.2 2.128-5.205 5.2-2.133 5.205 2.129 2.133 5.204q0 1.367-0.5 2.667t-1.3 2.2l8.333 8.333-0.667 0.667zM12.733 19.067q2.7 0 4.55-1.85t1.85-4.55-1.85-4.55-4.55-1.85-4.55 1.85-1.85 4.55 1.85 4.55 4.55 1.85z"></path>
</svg>
<svg id="_icon-settings" width="32" height="32" viewBox="0 0 32 32" x="384" y="96">
<path d="M13.867 27.6l-0.467-3.733q-0.7-0.2-1.55-0.667t-1.417-1l-3.433 1.467-2.133-3.733 2.967-2.233q-0.067-0.4-0.117-0.833t-0.050-0.833q0-0.367 0.050-0.783t0.117-0.95l-2.967-2.233 2.133-3.667 3.4 1.433q0.667-0.567 1.45-1.017t1.517-0.683l0.5-3.733h4.267l0.467 3.767q0.867 0.3 1.517 0.683t1.35 0.983l3.533-1.433 2.133 3.667-3.1 2.333q0.133 0.467 0.15 0.85t0.017 0.75q0 0.333-0.033 0.717t-0.133 0.95l3.033 2.267-2.133 3.733-3.467-1.5q-0.7 0.6-1.4 1.017t-1.467 0.65l-0.467 3.767h-4.267zM14.667 26.667h2.6l0.5-3.633q1-0.267 1.783-0.717t1.65-1.283l3.333 1.433 1.333-2.267-2.933-2.2q0.167-0.6 0.217-1.067t0.050-0.933q0-0.5-0.050-0.933t-0.217-1l3-2.267-1.333-2.267-3.433 1.433q-0.567-0.633-1.583-1.233t-1.85-0.767l-0.4-3.633h-2.667l-0.4 3.6q-1 0.2-1.833 0.667t-1.7 1.333l-3.333-1.4-1.333 2.267 2.9 2.167q-0.167 0.433-0.233 0.967t-0.067 1.1q0 0.5 0.067 1t0.2 0.967l-2.867 2.2 1.333 2.267 3.3-1.4q0.8 0.8 1.633 1.267t1.9 0.733l0.433 3.6zM15.933 18.933q1.233 0 2.083-0.85t0.85-2.083-0.85-2.083-2.083-0.85-2.083 0.85-0.85 2.083 0.85 2.083 2.083 0.85z"></path>
</svg>
</svg>
